<svg id="Filled" height="512" viewBox="0 0 512 512" width="512" xmlns="http://www.w3.org/2000/svg"><path d="m439.9 122.1c.06-.692.1-1.391.1-2.1a24 24 0 0 0 -48 0c0 13.255 10.745 32 24 32h16a15.993 15.993 0 0 0 7.9-29.9z" fill="#ffd33a"/><rect fill="#d13330" height="288" rx="16" width="224" x="144" y="24"/><path d="m400 120a16 16 0 0 0 -32 0 16 16 0 0 0 0 32c.7 0-.679.088 0 0 2.746 4.861 10.019 8 16 8s13.254-3.139 16-8c.679.088-.7 0 0 0a16 16 0 0 0 0-32z" fill="#ffe76c"/><path d="m448 152c0-8.836-32-8.836-32 0 0-8.836-32-8.836-32 0 0-8.836-32-8.836-32 0 0 .7 8 112 8 112h80s8-111.3 8-112z" fill="#eb423f"/><path d="m144 360h32v112h-32z" fill="#6a7073"/><path d="m336 360h32v112h-32z" fill="#6a7073"/><path d="m128 456h64v32h-64z" fill="#4f5659"/><path d="m320 456h64v32h-64z" fill="#4f5659"/><rect fill="#a82a27" height="64" rx="16" width="256" x="128" y="312"/><path d="m144 264h-64l-8-144h80z" fill="#2d85cc"/><path d="m72 120h80l8 32h-96z" fill="#dadcde"/><rect fill="#a82a27" height="48" rx="16" width="96" x="64" y="232"/><rect fill="#a82a27" height="48" rx="16" width="96" x="352" y="232"/><path d="m184 72h144a8 8 0 0 0 0-16h-144a8 8 0 0 0 0 16z"/><path d="m207.964 103.241a8 8 0 0 0 -15.928 1.518l16 168a8 8 0 0 0 7.954 7.241c.254 0 .511-.013.769-.037a8 8 0 0 0 7.205-8.723z"/><path d="m312.759 96.036a7.991 7.991 0 0 0 -8.723 7.2l-16 168a8 8 0 0 0 7.2 8.723c.259.024.515.037.769.037a8 8 0 0 0 7.954-7.242l16-168a8 8 0 0 0 -7.2-8.718z"/><path d="m256 96a8 8 0 0 0 -8 8v168a8 8 0 0 0 16 0v-168a8 8 0 0 0 -8-8z"/><circle cx="112" cy="200" r="8"/><path d="m56 248v16a24.028 24.028 0 0 0 24 24h56v8a23.853 23.853 0 0 0 1.7 8.846 24.039 24.039 0 0 0 -17.7 23.154v32a24.039 24.039 0 0 0 16 22.624v65.376h-8a8 8 0 0 0 -8 8v32a8 8 0 0 0 8 8h64a8 8 0 0 0 8-8v-32a8 8 0 0 0 -8-8h-8v-64h144v64h-8a8 8 0 0 0 -8 8v32a8 8 0 0 0 8 8h64a8 8 0 0 0 8-8v-32a8 8 0 0 0 -8-8h-8v-65.376a24.039 24.039 0 0 0 16-22.624v-32a24.039 24.039 0 0 0 -17.7-23.154 23.853 23.853 0 0 0 1.7-8.846v-8h56a24.028 24.028 0 0 0 24-24v-16a23.89 23.89 0 0 0 -5.727-15.534l5.706-79.9a7.992 7.992 0 0 0 -2.125-6.021c-.064-.07-.137-.131-.2-.2a23.965 23.965 0 0 0 -5.707-28.273 31.995 31.995 0 0 0 -54.949-20.312 23.821 23.821 0 0 0 -16.998-.379v-57.381a24.028 24.028 0 0 0 -24-24h-192a24.028 24.028 0 0 0 -24 24v72h-16v-56a7.994 7.994 0 0 0 -.845-3.578l-8-16a8 8 0 1 0 -14.31 7.156l7.155 14.311v54.111h-32a8 8 0 0 0 -7.761 6.06l-8 32a8 8 0 0 0 7.761 9.94h2.21l3.68 66.241a24.028 24.028 0 0 0 -13.89 21.759zm16 16v-16a8.009 8.009 0 0 1 8-8h64a8.009 8.009 0 0 1 8 8v16a8.009 8.009 0 0 1 -8 8h-64a8.009 8.009 0 0 1 -8-8zm112 216h-48v-16h48zm-16-32h-16v-64h16zm208 32h-48v-16h48zm-32-32v-64h16v64zm32-88a8.009 8.009 0 0 1 -8 8h-224a8.009 8.009 0 0 1 -8-8v-32a8.009 8.009 0 0 1 8-8h224a8.009 8.009 0 0 1 8 8zm63.408-200-4.583 64.172a23.954 23.954 0 0 0 -2.825-.172h-8v-64zm-78.816 0h15.408v64h-8a23.954 23.954 0 0 0 -2.825.172zm31.408 0h16v64h-16zm48 104a8.009 8.009 0 0 1 -8 8h-64a8.009 8.009 0 0 1 -8-8v-16a8.009 8.009 0 0 1 8-8h64a8.009 8.009 0 0 1 8 8zm-8-144c0 .425-.022.888-.067 1.415a8 8 0 0 0 4.01 7.636 7.993 7.993 0 0 1 -3.943 14.949h-9.371a24.008 24.008 0 0 0 -15.66-30.969 23.882 23.882 0 0 0 -1.98-4.627 15.991 15.991 0 0 1 27.011 11.596zm-48-8a8.009 8.009 0 0 1 8 8 8 8 0 0 0 8 8 8 8 0 0 1 0 16h-32a8 8 0 0 1 0-16 8 8 0 0 0 8-8 8.009 8.009 0 0 1 8-8zm-232-72a8.009 8.009 0 0 1 8-8h192a8.009 8.009 0 0 1 8 8v73.391a23.963 23.963 0 0 0 -13.647 32.957c-.068.068-.142.13-.207.2a7.992 7.992 0 0 0 -2.125 6.021l5.706 79.9a23.89 23.89 0 0 0 -5.727 15.531v16a24.039 24.039 0 0 0 16 22.624v9.376a8.009 8.009 0 0 1 -8 8h-192a8.009 8.009 0 0 1 -8-8v-9.376a24.039 24.039 0 0 0 16-22.624v-16a24.028 24.028 0 0 0 -13.89-21.759l3.68-66.241h2.21a8 8 0 0 0 7.761-9.94l-8-32a8 8 0 0 0 -7.761-6.06zm-73.754 88h67.508l4 16h-75.508zm63.52 32-3.556 64h-52.42l-3.556-64z"/></svg>